<svg width="17" height="18" viewBox="0 0 17 18" fill="none" xmlns="http://www.w3.org/2000/svg">
<g clip-path="url(#clip0_495_104)">
<path d="M14.546 9.10449H13.2313C13.3653 9.47139 13.4385 9.86733 13.4385 10.28V15.2489C13.4385 15.4209 13.4086 15.5861 13.3541 15.7397H15.5276C16.3395 15.7397 17 15.0791 17 14.2673V11.5585C17 10.2054 15.8992 9.10449 14.546 9.10449Z" fill="#5ED5A8"/>
<path d="M3.56154 10.28C3.56154 9.8673 3.63475 9.47139 3.76876 9.10449H2.45405C1.10089 9.10449 0 10.2054 0 11.5585V14.2673C0 15.0792 0.660511 15.7397 1.47243 15.7397H3.64598C3.59149 15.5861 3.56154 15.4209 3.56154 15.2489V10.28Z" fill="#5ED5A8"/>
<path d="M10.0028 7.82568H6.99717C5.64401 7.82568 4.54313 8.92657 4.54313 10.2797V15.2486C4.54313 15.5196 4.76286 15.7394 5.03393 15.7394H11.966C12.2371 15.7394 12.4568 15.5197 12.4568 15.2486V10.2797C12.4568 8.92657 11.356 7.82568 10.0028 7.82568Z" fill="#5ED5A8"/>
<path d="M8.50018 1.31885C6.87283 1.31885 5.54889 2.64279 5.54889 4.27018C5.54889 5.37402 6.15813 6.33807 7.05787 6.84422C7.48463 7.08428 7.97663 7.22148 8.50018 7.22148C9.02373 7.22148 9.51573 7.08428 9.94249 6.84422C10.8423 6.33807 11.4515 5.37399 11.4515 4.27018C11.4515 2.64282 10.1275 1.31885 8.50018 1.31885Z" fill="#5ED5A8"/>
<path d="M3.31757 4.06982C2.10051 4.06982 1.11039 5.05994 1.11039 6.27701C1.11039 7.49407 2.10051 8.48419 3.31757 8.48419C3.62629 8.48419 3.92027 8.42024 4.18733 8.30529C4.64905 8.1065 5.02976 7.75462 5.26533 7.31384C5.43069 7.00449 5.52475 6.65157 5.52475 6.27701C5.52475 5.05998 4.53463 4.06982 3.31757 4.06982Z" fill="#5ED5A8"/>
<path d="M13.6825 4.06982C12.4654 4.06982 11.4753 5.05994 11.4753 6.27701C11.4753 6.65161 11.5693 7.00452 11.7347 7.31384C11.9703 7.75465 12.351 8.10654 12.8127 8.30529C13.0798 8.42024 13.3737 8.48419 13.6825 8.48419C14.8995 8.48419 15.8896 7.49407 15.8896 6.27701C15.8896 5.05994 14.8995 4.06982 13.6825 4.06982Z" fill="#5ED5A8"/>
</g>
<defs>
<clipPath id="clip0_495_104">
<rect width="17" height="17" fill="white" transform="translate(0 0.0292969)"/>
</clipPath>
</defs>
</svg>
