<svg width="17" height="18" viewBox="0 0 17 18" fill="none" xmlns="http://www.w3.org/2000/svg">
<g clip-path="url(#clip0_495_29)">
<path d="M0.36869 7.9114C0.385329 7.91389 0.401869 7.91508 0.418242 7.91508C0.579917 7.91508 0.721632 7.79682 0.746275 7.63212C0.816883 7.16018 0.93153 6.69259 1.08699 6.24234C1.14687 6.06897 1.05485 5.8799 0.88148 5.82002C0.708081 5.76021 0.51904 5.85214 0.459159 6.02553C0.29041 6.51418 0.165999 7.02165 0.0893463 7.53381C0.0622124 7.71521 0.187288 7.88426 0.36869 7.9114Z" fill="#5ED5A8"/>
<path d="M3.29996 2.83066C3.37442 2.83066 3.44931 2.80576 3.51125 2.75471C3.87944 2.45072 4.27722 2.17922 4.69356 1.94763C4.85387 1.85846 4.91153 1.65623 4.82235 1.49592C4.73321 1.33564 4.53095 1.27798 4.37067 1.36712C3.91909 1.6183 3.48764 1.91279 3.08837 2.24242C2.94689 2.35919 2.92689 2.56852 3.04366 2.70997C3.10932 2.78955 3.20428 2.83066 3.29996 2.83066Z" fill="#5ED5A8"/>
<path d="M14.9019 4.28236C14.9666 4.37389 15.0691 4.42278 15.1733 4.42278C15.2396 4.42278 15.3065 4.40295 15.3648 4.36177C15.5146 4.25586 15.5501 4.04862 15.4442 3.89887C15.1457 3.47678 14.8066 3.07947 14.4363 2.71799C14.305 2.58986 14.0947 2.59242 13.9667 2.72367C13.8385 2.85495 13.841 3.06522 13.9723 3.19335C14.3139 3.52673 14.6266 3.89312 14.9019 4.28236Z" fill="#5ED5A8"/>
<path d="M1.22401 5.06337C1.27579 5.09276 1.33212 5.10675 1.38768 5.10675C1.50329 5.10675 1.61561 5.04623 1.67679 4.93853C1.91203 4.52418 2.18709 4.12873 2.49433 3.7631C2.61233 3.62265 2.59417 3.41318 2.45375 3.29518C2.31329 3.17711 2.10379 3.19534 1.98582 3.33576C1.65264 3.73228 1.35434 4.16117 1.09917 4.61056C1.00863 4.77008 1.0645 4.9728 1.22401 5.06337Z" fill="#5ED5A8"/>
<path d="M11.6045 1.60432C12.0417 1.7933 12.4645 2.02412 12.861 2.29034C12.9178 2.32847 12.9821 2.34674 13.0458 2.34674C13.1527 2.34674 13.2577 2.29516 13.3218 2.19974C13.4241 2.04747 13.3835 1.84112 13.2312 1.73886C12.8011 1.45009 12.3425 1.1997 11.8681 0.994621C11.6997 0.921854 11.5042 0.99937 11.4314 1.16772C11.3586 1.33607 11.4362 1.53159 11.6045 1.60432Z" fill="#5ED5A8"/>
<path d="M8.82514 0.971029C9.30326 0.99069 9.78061 1.05409 10.2439 1.15954C10.2688 1.16518 10.2935 1.16787 10.3179 1.16787C10.4695 1.16787 10.6064 1.06342 10.6415 0.909388C10.6821 0.730542 10.5701 0.552561 10.3913 0.511843C9.88861 0.397462 9.37084 0.32868 8.85238 0.307391C8.66948 0.300184 8.51445 0.442297 8.50691 0.625593C8.4994 0.808822 8.64185 0.96349 8.82514 0.971029Z" fill="#5ED5A8"/>
<path d="M16.0959 6.87C16.134 7.02041 16.2692 7.12058 16.4176 7.12058C16.4446 7.12058 16.472 7.11729 16.4995 7.11032C16.6773 7.06525 16.7849 6.88461 16.7398 6.70679C16.6127 6.20533 16.4382 5.71277 16.2213 5.24282C16.1444 5.07629 15.9471 5.00356 15.7805 5.08048C15.614 5.15736 15.5413 5.35468 15.6182 5.52123C15.818 5.95421 15.9788 6.40802 16.0959 6.87Z" fill="#5ED5A8"/>
<path d="M5.89659 1.38729C5.93163 1.38729 5.96727 1.38168 6.00227 1.36999C6.45375 1.21848 6.92234 1.10792 7.39497 1.04139C7.57658 1.01582 7.70311 0.847869 7.67754 0.666234C7.65197 0.484533 7.48392 0.358162 7.30238 0.383636C6.78946 0.455838 6.28095 0.575799 5.79098 0.74023C5.61708 0.798583 5.52343 0.986861 5.58178 1.16076C5.62838 1.29958 5.7578 1.38729 5.89659 1.38729Z" fill="#5ED5A8"/>
<path d="M16.2485 11.4146C16.0773 11.349 15.8852 11.4347 15.8196 11.606C15.6492 12.0507 15.4363 12.4827 15.1869 12.89C15.0912 13.0464 15.1403 13.2509 15.2967 13.3467C15.3509 13.3798 15.4107 13.3956 15.4699 13.3956C15.5816 13.3956 15.6908 13.3392 15.7534 13.2369C16.024 12.795 16.2549 12.3262 16.4399 11.8436C16.5055 11.6723 16.4198 11.4803 16.2485 11.4146Z" fill="#5ED5A8"/>
<path d="M16.9817 8.24065C16.9698 8.05762 16.8118 7.919 16.6287 7.93089C16.4456 7.94281 16.307 8.1009 16.3189 8.28393C16.3301 8.4555 16.3358 8.62996 16.3358 8.8025C16.3358 9.28157 16.2923 9.76125 16.2065 10.2282C16.1733 10.4086 16.2927 10.5817 16.4731 10.6149C16.4934 10.6186 16.5135 10.6204 16.5335 10.6204C16.6907 10.6204 16.8304 10.5084 16.8598 10.3482C16.9528 9.84179 17 9.32173 17 8.80253C17 8.61561 16.9939 8.42657 16.9817 8.24065Z" fill="#5ED5A8"/>
<path d="M9.34292 16.5956C8.87142 16.6461 8.38503 16.654 7.91113 16.619C7.7286 16.6053 7.56898 16.7428 7.55543 16.9257C7.54188 17.1086 7.67921 17.2679 7.86214 17.2814C8.07224 17.2969 8.28609 17.3048 8.49778 17.3048C8.80353 17.3048 9.11167 17.2884 9.41373 17.2561C9.5961 17.2365 9.72811 17.0728 9.70855 16.8904C9.68899 16.708 9.52539 16.5766 9.34292 16.5956Z" fill="#5ED5A8"/>
<path d="M12.0734 15.7794C11.6489 15.9974 11.2022 16.1772 10.7459 16.3135C10.5701 16.366 10.4702 16.5511 10.5227 16.7268C10.5658 16.8709 10.6978 16.9639 10.8408 16.9639C10.8723 16.9639 10.9043 16.9594 10.9361 16.9499C11.4314 16.8019 11.9162 16.6069 12.3769 16.3703C12.54 16.2865 12.6044 16.0863 12.5206 15.9231C12.4368 15.76 12.2366 15.6957 12.0734 15.7794Z" fill="#5ED5A8"/>
<path d="M0.840102 10.4825C0.73874 10.0183 0.67949 9.54038 0.663914 9.062C0.657969 8.87867 0.505361 8.73606 0.321169 8.74084C0.13784 8.74678 -0.00593367 8.90026 4.44499e-05 9.08358C0.0168828 9.60225 0.0811808 10.1206 0.191145 10.6241C0.225054 10.7795 0.362551 10.8855 0.515292 10.8855C0.538772 10.8855 0.562585 10.883 0.586464 10.8778C0.765675 10.8387 0.879226 10.6617 0.840102 10.4825Z" fill="#5ED5A8"/>
<path d="M14.7999 14.0123C14.6634 13.8897 14.4534 13.901 14.3309 14.0375C14.012 14.3925 13.659 14.7202 13.2814 15.0116C13.1362 15.1236 13.1093 15.3321 13.2213 15.4774C13.2867 15.5622 13.3851 15.6066 13.4845 15.6066C13.5553 15.6066 13.6267 15.5841 13.6871 15.5374C14.0965 15.2215 14.4794 14.8662 14.8251 14.4813C14.9477 14.3449 14.9364 14.1348 14.7999 14.0123Z" fill="#5ED5A8"/>
<path d="M3.9214 15.1663C3.53455 14.8877 3.17088 14.5717 2.84046 14.2272C2.71345 14.0949 2.50326 14.0904 2.37088 14.2174C2.23853 14.3444 2.23414 14.5547 2.36111 14.687C2.71937 15.0605 3.11369 15.4031 3.53315 15.7053C3.59191 15.7476 3.65976 15.768 3.72701 15.768C3.83017 15.768 3.93186 15.72 3.99676 15.6299C4.10397 15.4811 4.07022 15.2735 3.9214 15.1663Z" fill="#5ED5A8"/>
<path d="M1.27254 11.8467C1.20123 11.6777 1.00645 11.5985 0.837431 11.6697C0.66845 11.7411 0.58924 11.9359 0.660545 12.1048C0.86141 12.5809 1.10768 13.0416 1.39257 13.4741C1.4564 13.571 1.56224 13.6235 1.67022 13.6235C1.73292 13.6235 1.79632 13.6058 1.85261 13.5687C2.00579 13.4678 2.04817 13.2618 1.94727 13.1086C1.68466 12.71 1.45766 12.2854 1.27254 11.8467Z" fill="#5ED5A8"/>
<path d="M6.49948 16.3834C6.03864 16.2623 5.58612 16.0975 5.15454 15.8937C4.98861 15.8154 4.7907 15.8863 4.71239 16.0522C4.63404 16.2181 4.70501 16.416 4.87087 16.4943C5.33929 16.7155 5.8304 16.8943 6.3306 17.0258C6.3589 17.0332 6.38729 17.0368 6.41526 17.0368C6.56252 17.0368 6.69706 16.9381 6.73625 16.789C6.78288 16.6116 6.67687 16.43 6.49948 16.3834Z" fill="#5ED5A8"/>
<path d="M1.45662 8.80261C1.45662 12.685 4.61516 15.8435 8.49751 15.8435C12.3799 15.8435 15.5384 12.685 15.5384 8.80261C15.5384 4.92026 12.3799 1.76172 8.49751 1.76172C4.61516 1.76172 1.45662 4.92026 1.45662 8.80261ZM8.49751 2.42595C12.0136 2.42595 14.8742 5.28652 14.8742 8.80261C14.8742 12.3187 12.0136 15.1793 8.49751 15.1793C4.98142 15.1793 2.12085 12.3187 2.12085 8.80261C2.12085 5.28652 4.98142 2.42595 8.49751 2.42595Z" fill="#5ED5A8"/>
<path d="M6.77074 4.0724C6.80631 4.0724 6.84248 4.06663 6.87802 4.05457C7.39792 3.87722 7.94292 3.78728 8.49782 3.78728C8.68125 3.78728 8.82994 3.63856 8.82994 3.45516C8.82994 3.27177 8.68125 3.12305 8.49782 3.12305C7.86979 3.12305 7.25268 3.22494 6.66357 3.42587C6.48997 3.48509 6.39724 3.6738 6.45646 3.84743C6.50356 3.98549 6.63255 4.0724 6.77074 4.0724Z" fill="#5ED5A8"/>
<path d="M3.15059 9.13454C3.33402 9.13454 3.4827 8.98582 3.4827 8.80239C3.4827 7.23168 4.19802 5.78129 5.44525 4.82303C5.59069 4.7113 5.61802 4.5028 5.50626 4.35733C5.39451 4.21187 5.18597 4.18457 5.04057 4.29632C3.6284 5.38128 2.81847 7.0237 2.81847 8.80242C2.81847 8.98582 2.96716 9.13454 3.15059 9.13454Z" fill="#5ED5A8"/>
</g>
<defs>
<clipPath id="clip0_495_29">
<rect width="17" height="17" fill="white" transform="translate(0 0.305664)"/>
</clipPath>
</defs>
</svg>
