<svg width="17" height="17" viewBox="0 0 17 17" fill="none" xmlns="http://www.w3.org/2000/svg">
<path d="M8.5 0C3.80563 0 0 3.80563 0 8.5C0 13.1944 3.80563 17 8.5 17C13.1944 17 17 13.1944 17 8.5C16.9947 3.80785 13.1922 0.00525718 8.5 0ZM15.8513 11.4778L13.434 11.8949C13.7107 10.8801 13.8601 9.8349 13.8788 8.78333H16.4263C16.3943 9.70832 16.1997 10.6204 15.8513 11.4778ZM0.573722 8.78333H3.12123C3.13991 9.8349 3.28932 10.8801 3.56602 11.8949L1.14869 11.4778C0.800334 10.6204 0.60568 9.70832 0.573722 8.78333ZM1.14869 5.52223L3.56602 5.10512C3.28932 6.11989 3.13991 7.1651 3.12123 8.21667H0.573722C0.60568 7.29168 0.800334 6.37957 1.14869 5.52223ZM8.78333 4.54924C9.80142 4.56225 10.817 4.65494 11.8207 4.82663L12.8208 4.99915C13.1281 6.04477 13.2934 7.12691 13.3124 8.21667H8.78333V4.54924ZM11.9173 4.26812C10.8818 4.09118 9.8338 3.99558 8.78333 3.98258V0.582577C10.4077 0.738631 11.8187 2.22585 12.6183 4.39028L11.9173 4.26812ZM8.21667 3.98258C7.1662 3.99558 6.11851 4.09118 5.08298 4.26812L4.38171 4.38945C5.18135 2.22447 6.59234 0.736694 8.21667 0.581331V3.98258ZM5.17955 4.82663C6.18311 4.65494 7.19858 4.56225 8.21667 4.54924V8.21667H3.68762C3.70658 7.12691 3.8719 6.04477 4.17917 4.99915L5.17955 4.82663ZM3.68762 8.78333H8.21667V12.4508C7.19858 12.4378 6.18298 12.3451 5.17927 12.1734L4.17917 12.0009C3.8719 10.9552 3.70658 9.87309 3.68762 8.78333ZM5.08271 12.7319C6.11823 12.9091 7.16606 13.0051 8.21667 13.0189V16.4189C6.59234 16.2628 5.18135 14.7755 4.38171 12.6111L5.08271 12.7319ZM8.78333 13.0189C9.8338 13.0051 10.8815 12.9091 11.917 12.7319L12.6183 12.6105C11.8187 14.7755 10.4077 16.2633 8.78333 16.4187V13.0189ZM11.8205 12.1734C10.8169 12.3451 9.80142 12.4378 8.78333 12.4508V8.78333H13.3124C13.2934 9.87309 13.1281 10.9552 12.8208 12.0009L11.8205 12.1734ZM13.8788 8.21667C13.8601 7.1651 13.7107 6.11989 13.434 5.10512L15.8513 5.52223C16.1997 6.37957 16.3943 7.29168 16.4263 8.21667H13.8788ZM15.5647 4.89774L13.2475 4.49792C12.8309 3.13894 12.0516 1.91928 10.9933 0.970361C12.9723 1.63083 14.6135 3.04071 15.5647 4.89774ZM6.00672 0.970361C4.94837 1.91928 4.16907 3.13894 3.75251 4.49792L1.43534 4.89774C2.38647 3.04071 4.02768 1.63083 6.00672 0.970361ZM1.43534 12.1023L3.75251 12.5021C4.16907 13.8611 4.94837 15.0807 6.00672 16.0296C4.02768 15.3692 2.38647 13.9593 1.43534 12.1023ZM10.9933 16.0296C12.0516 15.0807 12.8309 13.8611 13.2475 12.5021L15.5647 12.1023C14.6135 13.9593 12.9723 15.3692 10.9933 16.0296Z" fill="#5ED5A8"/>
</svg>
