<svg width="24" height="24" viewBox="0 0 24 24" fill="none" xmlns="http://www.w3.org/2000/svg">
<path d="M12.02 20.35C9.43999 20.35 6.86999 19.94 4.41999 19.12C3.50999 18.82 2.81999 18.17 2.51999 17.35C2.21999 16.53 2.31999 15.59 2.80999 14.77L4.07999 12.65C4.35999 12.18 4.60999 11.3 4.60999 10.75V8.64999C4.60999 4.55999 7.92999 1.23999 12.02 1.23999C16.11 1.23999 19.43 4.55999 19.43 8.64999V10.75C19.43 11.29 19.68 12.18 19.96 12.65L21.23 14.77C21.7 15.55 21.78 16.48 21.47 17.33C21.16 18.18 20.48 18.83 19.62 19.12C17.17 19.95 14.6 20.35 12.02 20.35ZM12.02 2.74999C8.75999 2.74999 6.10999 5.39999 6.10999 8.65999V10.76C6.10999 11.57 5.78999 12.74 5.36999 13.43L4.09999 15.56C3.83999 15.99 3.77999 16.45 3.92999 16.85C4.07999 17.25 4.41999 17.55 4.89999 17.71C9.49999 19.24 14.56 19.24 19.16 17.71C19.59 17.57 19.92 17.25 20.07 16.83C20.23 16.41 20.18 15.95 19.95 15.56L18.68 13.44C18.26 12.75 17.94 11.58 17.94 10.77V8.66999C17.93 5.39999 15.28 2.74999 12.02 2.74999Z" fill="#5ED5A8"/>
<path opacity="0.1" d="M16 9C16 7.93913 15.5786 6.92172 14.8284 6.17157C14.0783 5.42143 13.0609 5 12 5C10.9391 5 9.92172 5.42143 9.17157 6.17157C8.42143 6.92172 8 7.93913 8 9L12 9H16Z" fill="#5ED5A8"/>
<path d="M11.75 19.75C10.76 19.75 9.8 19.35 9.1 18.65C8.4 17.95 8 16.99 8 16H9.5C9.5 16.59 9.74 17.17 10.16 17.59C10.58 18.01 11.16 18.25 11.75 18.25C12.99 18.25 14 17.24 14 16H15.5C15.5 18.07 13.82 19.75 11.75 19.75Z" fill="#5ED5A8"/>
</svg>
