<svg width="95" height="31" viewBox="0 0 95 31" fill="none" xmlns="http://www.w3.org/2000/svg">
<path d="M1 11.2727L5.21255 13.3759C6.75569 14.1463 8.62912 13.46 9.30939 11.875L11.0652 7.78435C12.1801 5.18667 15.9406 5.43169 16.709 8.15208L20.5835 21.8687C21.2468 24.2167 24.2863 24.8331 25.8118 22.929L31.4503 15.8914C32.5361 14.5361 34.5422 14.383 35.8211 15.5578L48.7802 27.4625C50.0416 28.6213 52.0155 28.4905 53.113 27.1754L55.7805 23.9792C56.9002 22.6375 59.0285 22.8847 59.8109 24.4472V24.4472C60.7717 26.3661 63.5679 26.1833 64.2708 24.1557L67.5889 14.5841C68.1568 12.9461 70.1545 12.3343 71.5422 13.3736V13.3736C72.9398 14.4202 74.952 13.7913 75.5049 12.1351L76.3246 9.67966C77.2518 6.90232 81.2009 6.96222 82.0434 9.7664L82.731 12.0549C83.1919 13.589 84.7766 14.4903 86.3307 14.1024L86.7558 13.9963C88.1688 13.6436 89.6309 14.3566 90.2231 15.687L92.0215 19.7273" stroke="#5ED5A8" stroke-linecap="round"/>
<path d="M5.21255 13.3759L1 11.2727V28C1 29.6569 2.34314 31 4 31H91.5215C91.7976 31 92.0215 30.7761 92.0215 30.5V20.3648C92.0215 19.9445 91.9332 19.5288 91.7622 19.1449L90.2231 15.687C89.6309 14.3566 88.1688 13.6436 86.7558 13.9963L86.3307 14.1024C84.7766 14.4903 83.1919 13.589 82.731 12.0549L82.0434 9.7664C81.2009 6.96222 77.2518 6.90232 76.3246 9.67966L75.5049 12.1351C74.952 13.7913 72.9398 14.4202 71.5422 13.3736C70.1545 12.3343 68.1568 12.9461 67.589 14.5841L64.2708 24.1557C63.5679 26.1833 60.7717 26.3661 59.8109 24.4472C59.0285 22.8847 56.9002 22.6375 55.7805 23.9792L53.113 27.1754C52.0155 28.4905 50.0416 28.6213 48.7802 27.4625L35.8211 15.5578C34.5422 14.383 32.5361 14.5361 31.4503 15.8914L25.8118 22.929C24.2863 24.8331 21.2468 24.2167 20.5835 21.8687L16.709 8.15208C15.9406 5.43169 12.1801 5.18667 11.0652 7.78435L9.30939 11.875C8.62912 13.46 6.75569 14.1463 5.21255 13.3759Z" fill="url(#paint0_linear_1_16492)"/>
<defs>
<linearGradient id="paint0_linear_1_16492" x1="76.198" y1="-15.5" x2="76.198" y2="27.3095" gradientUnits="userSpaceOnUse">
<stop stop-color="#5ED5A8"/>
<stop offset="1" stop-color="#5ED5A8" stop-opacity="0"/>
</linearGradient>
</defs>
</svg>